<svg width="84" height="75" viewBox="0 0 84 75" fill="none" xmlns="http://www.w3.org/2000/svg">
<path d="M43.2019 74.9509C43.2019 74.9509 73.6554 43.6282 77.8354 37.1958C82.0153 30.7635 1.10431 25.7294 8.03714 37.1958C14.97 48.6622 43.2019 74.9509 43.2019 74.9509Z" fill="#D99CB0"/>
<ellipse cx="25.5866" cy="22.0937" rx="23.5866" ry="22.0937" fill="#D99CB0"/>
<ellipse cx="60.2201" cy="22.0937" rx="23.5866" ry="22.0937" fill="#D99CB0"/>
<mask id="mask0_65_33" style="mask-type:luminance" maskUnits="userSpaceOnUse" x="4" y="15" width="52" height="59">
<path d="M55.1781 15.1965H4.73022V73.662H55.1781V15.1965Z" fill="white"/>
</mask>
<g mask="url(#mask0_65_33)">
<path d="M55.0586 67.031C54.8307 67.5354 54.606 68.0417 54.3738 68.5442C54.1044 69.1905 53.6617 69.7527 53.0923 70.1704C52.5229 70.588 51.8487 70.8452 51.1421 70.9146C49.4287 71.1506 47.6829 70.895 46.1138 70.1785C44.2793 69.3305 43.5087 67.9924 43.6405 66.0072C43.7129 64.8141 44.1546 63.6711 44.906 62.7314C45.6574 61.7916 46.6825 61.1002 47.8448 60.7497C48.0942 60.6737 48.3327 60.5673 48.6687 60.44C48.6123 57.596 49.0205 54.7332 48.4036 51.9118C48.1923 51.0834 47.7985 50.311 47.2503 49.6489C46.6609 48.9075 45.7833 48.8136 45.0048 49.3704C44.3319 49.8493 43.7484 50.4393 43.2802 51.1143C41.8859 53.1644 41.1544 55.4724 40.8188 57.9018C40.4518 60.5595 40.1715 63.2288 39.755 65.8784C38.7754 72.1131 32.1471 75.3909 26.4149 72.4953C23.6222 71.0847 22.3628 68.6657 22.3077 65.7157C22.2578 63.0414 22.481 60.3586 22.6655 57.6851C22.7991 55.7435 23.0709 53.8127 23.2683 51.8744C23.2871 51.5694 23.2888 51.2636 23.2735 50.9586C20.8666 50.1077 18.5043 49.412 16.2589 48.453C10.0767 45.8099 6.60294 41.0195 5.34303 34.6061C4.70767 31.4868 4.90088 28.2592 5.90392 25.2347C7.31312 21.0118 10.2877 18.2325 14.5549 16.7916C14.9316 16.6732 15.3198 16.5935 15.7132 16.554C16.3288 16.4796 16.8524 16.3986 17.2786 15.7975C17.8034 15.0572 18.5558 15.1695 19.1151 15.9157C19.361 16.3013 19.4975 16.7444 19.5108 17.1994C19.524 17.6543 19.4135 18.1045 19.1905 18.5033C18.5926 19.398 17.8885 19.3828 16.7871 18.4527C13.1579 18.9267 8.60906 22.7607 7.78721 27.752C7.29302 30.7552 7.27532 33.758 8.32623 36.6046C9.85074 40.7345 12.5028 44.0109 16.7636 45.7461C18.4268 46.4236 20.1724 46.9043 21.8426 47.5661C24.6389 48.6744 27.3661 48.1179 29.6818 46.6712C34.3326 43.7661 38.3427 40.0921 40.8762 35.1751C42.9353 31.1785 42.9698 27.0955 40.6582 23.1228C39.0709 20.3945 36.5657 18.9179 33.5455 18.1596C33.0307 18.0303 32.6349 18.0973 32.2844 18.5645C31.8931 19.0834 31.3287 19.3471 30.6574 19.0756C30.0275 18.8204 29.7475 18.293 29.6422 17.6605C29.3849 16.1108 29.7377 15.4358 31.0229 15.2308C31.4069 15.1693 31.8465 15.3469 32.2408 15.471C32.6784 15.6084 33.0838 15.9139 33.5255 15.9675C37.7919 16.4874 41.0471 18.558 43.2138 22.1788C46.0131 26.8573 45.8005 31.6718 43.5824 36.4884C42.2162 39.455 40.1058 41.9013 37.7008 44.0908C35.8947 45.736 34.0075 47.2971 32.1083 48.8382C30.8072 49.9004 29.1729 50.4884 27.4817 50.502C27.0504 50.5307 26.6209 50.5808 26.1948 50.6524C26.1298 50.7855 26.0812 50.9257 26.0502 51.0705C25.8679 54.3557 25.6478 57.64 25.5354 60.9278C25.4769 62.5266 25.533 64.1281 25.7031 65.7195C26.0756 69.118 28.4145 70.8306 31.8527 70.3424C34.7993 69.924 36.2664 68.6398 36.7945 65.7446C37.1662 63.7043 37.3389 61.6281 37.578 59.5662C37.9955 55.9722 38.6922 52.4696 40.7539 49.3664C41.7508 47.8655 43.0002 46.7089 44.7884 46.2111C46.3499 45.7757 47.7448 46.1485 49.0064 47.1027C51.0217 48.6271 51.6786 50.7888 51.8942 53.1381C52.1613 55.7015 51.988 58.2913 51.3813 60.7982C51.5625 60.9174 51.7527 61.0238 51.9499 61.1164C53.4962 61.7118 54.5119 62.7541 54.855 64.3841C54.8786 64.4975 54.9907 64.5928 55.0609 64.6961L55.0586 67.031ZM50.1307 68.4324C51.466 68.2858 52.0072 67.8802 52.3327 66.6678C52.6397 65.5256 52.1864 64.162 51.2954 63.5454C50.1233 62.7356 48.9233 62.6091 48.006 63.2909C47.4938 63.6657 47.0923 64.1686 46.8429 64.7466C46.5935 65.325 46.5052 65.9579 46.5868 66.581C46.6346 66.8031 46.7327 67.0117 46.8735 67.1922C47.0138 67.3719 47.1938 67.5188 47.3997 67.6218C48.2691 67.9851 49.2154 68.1725 50.1307 68.4316V68.4324Z" fill="black"/>
<path d="M51.1581 65.5965C51.1518 65.9675 51.0001 66.3211 50.7342 66.5837C50.4687 66.8467 50.1095 66.9983 49.7326 67.0064C49.3126 67.0079 48.9087 66.8483 48.6067 66.5614C48.3044 66.2745 48.1283 65.8827 48.1154 65.4701C48.111 65.2857 48.1455 65.1022 48.2153 64.931C48.2855 64.7601 48.3903 64.6047 48.5232 64.4748C48.6561 64.3444 48.8146 64.2422 48.9887 64.174C49.1632 64.1057 49.3499 64.0729 49.5373 64.078C49.7463 64.0687 49.955 64.1011 50.151 64.1728C50.3467 64.2449 50.5259 64.3552 50.6773 64.4971C50.8287 64.639 50.9495 64.8095 51.0318 64.9984C51.1146 65.1874 51.1573 65.391 51.1581 65.5965Z" fill="black"/>
</g>
</svg>
