<svg width="101" height="90" viewBox="0 0 101 90" fill="none" xmlns="http://www.w3.org/2000/svg">
<path d="M60.2019 75.9509C60.2019 75.9509 90.6554 44.6281 94.8354 38.1958C99.0153 31.7634 18.1043 26.7294 25.0371 38.1958C31.97 49.6622 60.2019 75.9509 60.2019 75.9509Z" fill="#D99CB0"/>
<ellipse cx="42.5866" cy="23.0937" rx="23.5866" ry="22.0937" fill="#D99CB0"/>
<ellipse cx="77.2201" cy="23.0937" rx="23.5866" ry="22.0937" fill="#D99CB0"/>
<path fill-rule="evenodd" clip-rule="evenodd" d="M28.125 33.75C28.125 30.6434 30.6434 28.125 33.75 28.125H56.25C59.3565 28.125 61.875 30.6434 61.875 33.75V56.25C61.875 59.3565 59.3565 61.875 56.25 61.875H33.75C30.6434 61.875 28.125 59.3565 28.125 56.25V33.75ZM33.75 31.875C32.7145 31.875 31.875 32.7145 31.875 33.75V56.25C31.875 57.2854 32.7145 58.125 33.75 58.125H56.25C57.2854 58.125 58.125 57.2854 58.125 56.25V33.75C58.125 32.7145 57.2854 31.875 56.25 31.875H33.75Z" fill="black"/>
<path fill-rule="evenodd" clip-rule="evenodd" d="M39.375 11.25C40.4104 11.25 41.25 12.0895 41.25 13.125V24.375C41.25 25.4105 40.4104 26.25 39.375 26.25C38.3396 26.25 37.5 25.4105 37.5 24.375V13.125C37.5 12.0895 38.3396 11.25 39.375 11.25Z" fill="black"/>
<path fill-rule="evenodd" clip-rule="evenodd" d="M50.625 11.25C51.6604 11.25 52.5 12.0895 52.5 13.125V24.375C52.5 25.4105 51.6604 26.25 50.625 26.25C49.5896 26.25 48.75 25.4105 48.75 24.375V13.125C48.75 12.0895 49.5896 11.25 50.625 11.25Z" fill="black"/>
<path fill-rule="evenodd" clip-rule="evenodd" d="M11.25 50.625C11.25 49.5896 12.0895 48.75 13.125 48.75H24.375C25.4105 48.75 26.25 49.5896 26.25 50.625C26.25 51.6604 25.4105 52.5 24.375 52.5H13.125C12.0895 52.5 11.25 51.6604 11.25 50.625Z" fill="black"/>
<path fill-rule="evenodd" clip-rule="evenodd" d="M63.75 50.625C63.75 49.5896 64.5896 48.75 65.625 48.75H76.875C77.9104 48.75 78.75 49.5896 78.75 50.625C78.75 51.6604 77.9104 52.5 76.875 52.5H65.625C64.5896 52.5 63.75 51.6604 63.75 50.625Z" fill="black"/>
<path fill-rule="evenodd" clip-rule="evenodd" d="M11.25 39.375C11.25 38.3396 12.0895 37.5 13.125 37.5H24.375C25.4105 37.5 26.25 38.3396 26.25 39.375C26.25 40.4104 25.4105 41.25 24.375 41.25H13.125C12.0895 41.25 11.25 40.4104 11.25 39.375Z" fill="black"/>
<path fill-rule="evenodd" clip-rule="evenodd" d="M63.75 39.375C63.75 38.3396 64.5896 37.5 65.625 37.5H76.875C77.9104 37.5 78.75 38.3396 78.75 39.375C78.75 40.4104 77.9104 41.25 76.875 41.25H65.625C64.5896 41.25 63.75 40.4104 63.75 39.375Z" fill="black"/>
<path fill-rule="evenodd" clip-rule="evenodd" d="M39.375 63.75C40.4104 63.75 41.25 64.5896 41.25 65.625V76.875C41.25 77.9104 40.4104 78.75 39.375 78.75C38.3396 78.75 37.5 77.9104 37.5 76.875V65.625C37.5 64.5896 38.3396 63.75 39.375 63.75Z" fill="black"/>
<path fill-rule="evenodd" clip-rule="evenodd" d="M50.625 63.75C51.6604 63.75 52.5 64.5896 52.5 65.625V76.875C52.5 77.9104 51.6604 78.75 50.625 78.75C49.5896 78.75 48.75 77.9104 48.75 76.875V65.625C48.75 64.5896 49.5896 63.75 50.625 63.75Z" fill="black"/>
</svg>
