<svg width="143" height="77" viewBox="0 0 143 77" fill="none" xmlns="http://www.w3.org/2000/svg">
<path d="M66.2019 74.9509C66.2019 74.9509 96.6554 43.6282 100.835 37.1958C105.015 30.7635 24.1043 25.7294 31.0371 37.1958C37.97 48.6622 66.2019 74.9509 66.2019 74.9509Z" fill="#D99CB0"/>
<ellipse cx="48.5866" cy="22.0937" rx="23.5866" ry="22.0937" fill="#D99CB0"/>
<ellipse cx="83.2201" cy="22.0937" rx="23.5866" ry="22.0937" fill="#D99CB0"/>
<g clip-path="url(#clip0_100_163)">
<path d="M41.3334 70.7343H33.0325V76H41.3334C42.7864 76 43.9663 74.8217 43.9663 73.368C43.9663 71.915 42.7864 70.7343 41.3334 70.7343Z" fill="#ECE1D4"/>
<path d="M27.2925 70.7343C25.8403 70.7343 24.6605 71.915 24.6605 73.3679C24.6605 74.8217 25.8404 75.9999 27.2925 75.9999H33.0325V70.7341L27.2925 70.7343Z" fill="#F8EDE2"/>
<path d="M25.1297 17.7815C20.2143 17.7815 15.3013 11.9318 17.173 7.4856C17.8742 5.8503 16.9388 5.38109 15.0663 7.01898C13.1954 8.65864 9.68323 18.2507 21.1513 23.3983L25.1297 17.7815Z" fill="#F8DBC0"/>
<path d="M2.66383 21.1171C4.41985 20.6487 11.3222 19.9459 16.7035 22.9896C18.1783 23.8236 18.9267 24.1619 20.2144 22.8715C22.3232 20.7636 20.2984 33.2855 19.2772 33.2855C17.8734 33.2855 14.3644 33.2855 11.7905 33.2855C7.81184 33.2855 4.10745 31.1228 2.42827 29.0739C0.322526 26.4994 -1.88097 22.3287 2.66383 21.1171Z" fill="#6F6254"/>
<path d="M25.1229 16.6589C25.0818 16.6589 25.0219 16.6589 24.9807 16.6589C22.5954 16.6589 21.7271 17.7446 20.8593 19.6958C19.9928 21.6462 17.5462 29.4249 16.9551 30.7528C16.0877 32.7058 16.0911 34.8746 16.0911 37.6932C16.0911 40.5127 16.0911 51.4431 16.0911 54.6957C16.0911 56.1212 17.0095 57.6701 18.4599 59.1069C18.7518 59.398 19.0618 59.6832 19.3731 59.9614C37.8786 41.1515 29.4022 21.8971 25.1229 16.6589Z" fill="#6F6254"/>
<path d="M25.1229 16.6589C29.4022 21.8971 37.8786 41.1515 19.373 59.9615C21.0431 61.4565 22.8111 62.7664 22.8111 63.5884C22.8111 65.3231 21.9455 66.6245 21.9455 69.009C21.9455 71.3944 24.0758 73.0332 27.9202 73.0332C29.8724 73.0332 35.6081 73.0332 35.6081 73.0332V16.6589C33.0488 16.6589 27.5777 16.6589 25.1229 16.6589Z" fill="#FFFDF9"/>
<path d="M43.5099 17.7815C48.4245 17.7815 53.3391 11.9318 51.4657 7.4856C50.7627 5.8503 51.7003 5.38109 53.5712 7.01898C55.4445 8.65864 58.9541 18.2507 47.4887 23.3983L43.5099 17.7815Z" fill="#EFCDAE"/>
<path d="M50.8544 38.6326C50.9426 38.8835 50.9983 39.1464 50.9983 39.4272C50.9983 40.7835 49.8971 41.8862 48.5409 41.8862C47.183 41.8862 46.0827 40.7835 46.0827 39.4272C46.0827 39.3699 46.0973 39.3141 46.1015 39.2585C47.8757 37.7849 49.6729 38.273 50.8544 38.6326Z" fill="#8B7B67"/>
<path d="M48.7851 22.3792C48.3783 21.2148 48.017 20.2319 47.7781 19.6958C46.9109 17.7446 46.0444 16.6589 43.6599 16.6589C41.2718 16.6589 35.6354 16.6589 33.0326 16.6589V73.0332C33.0326 73.0332 38.7666 73.0332 40.7188 73.0332C44.564 73.0332 46.6942 71.3944 46.6942 69.009C46.6942 67.092 46.1402 65.8728 45.9202 64.5679C31.1351 45.0849 41.9036 25.9162 48.7851 22.3792Z" fill="#F8EDE2"/>
<path d="M50.1797 59.107C51.6292 57.6703 52.5488 56.1214 52.5488 54.6958C52.5488 51.4431 52.5488 40.5129 52.5488 37.6933C52.5488 34.8747 52.5514 32.706 51.6841 30.7529C51.256 29.7906 49.8535 25.4437 48.7849 22.3792C41.9036 25.9162 31.1351 45.0849 45.92 64.5678C45.8652 64.2502 45.8276 63.9291 45.8276 63.5884C45.8277 62.6124 48.3201 60.953 50.1797 59.107Z" fill="#625549"/>
<path d="M6.4076 28.1372C5.5877 27.3179 5.23797 24.8597 7.34385 25.0969C9.45055 25.3279 14.8322 27.4344 14.8322 28.3709C14.8322 29.3077 10.5447 32.2753 6.4076 28.1372Z" fill="#8B7B67"/>
<path d="M66.9152 21.1171C65.1582 20.6487 58.2554 19.9459 52.8735 22.9896C51.4 23.8236 50.6499 24.1619 49.363 22.8715C47.2533 20.7636 49.28 33.2855 50.3014 33.2855C51.7039 33.2855 55.2126 33.2855 57.7864 33.2855C61.7651 33.2855 65.4708 31.1228 67.149 29.0739C69.2552 26.4994 71.4573 22.3287 66.9152 21.1171Z" fill="#625549"/>
<path d="M63.1683 28.1372C63.9894 27.3179 64.3388 24.8597 62.2333 25.0969C60.127 25.3279 54.7449 27.4344 54.7449 28.3709C54.7451 29.3077 59.0338 32.2753 63.1683 28.1372Z" fill="#8B7B67"/>
<path d="M17.784 38.6326C17.6974 38.8835 17.6406 39.1464 17.6406 39.4272C17.6406 40.7835 18.7413 41.8862 20.0988 41.8862C21.4546 41.8862 22.5552 40.7835 22.5552 39.4272C22.5552 39.3699 22.5432 39.3141 22.5371 39.2585C20.7631 37.7849 18.9655 38.273 17.784 38.6326Z" fill="#342928"/>
<path d="M50.8545 38.6326C50.9426 38.8835 50.9983 39.1464 50.9983 39.4272C50.9983 40.7835 49.8972 41.8862 48.5409 41.8862C47.183 41.8862 46.0827 40.7835 46.0827 39.4272C46.0827 39.3699 46.0973 39.3141 46.1016 39.2585C47.8758 37.7849 49.6729 38.273 50.8545 38.6326Z" fill="#342928"/>
<path d="M27.9107 64.9814C30.0606 64.1534 30.4578 69.1717 29.2917 69.5869C27.141 70.355 25.9139 65.7477 27.9107 64.9814Z" fill="#4F4B4A"/>
<path d="M39.9823 64.9814C37.8316 64.1534 37.4335 69.1717 38.6005 69.5869C40.7504 70.355 41.9798 65.7477 39.9823 64.9814Z" fill="#4F4B4A"/>
</g>
<path fill-rule="evenodd" clip-rule="evenodd" d="M91.7776 28.0916C91.7776 28.0916 76.5278 32.1716 73.6241 46.6088C73.6241 46.6088 81.7361 50.0282 92.4861 44.9616" fill="#979797"/>
<path fill-rule="evenodd" clip-rule="evenodd" d="M123.551 28.0916C123.551 28.0916 138.801 32.1716 141.704 46.6088C141.704 46.6088 133.592 50.0282 122.842 44.9616" fill="#979797"/>
<path d="M108 75.9062C120.685 75.9062 130.969 62.6847 130.969 46.375C130.969 30.0653 120.685 16.8438 108 16.8438C95.3147 16.8438 85.0312 30.0653 85.0312 46.375C85.0312 62.6847 95.3147 75.9062 108 75.9062Z" fill="#D8D8D8"/>
<path d="M93.7812 28.875C96.8016 28.875 99.25 26.4266 99.25 23.4062C99.25 20.3859 96.8016 17.9375 93.7812 17.9375C90.7609 17.9375 88.3125 20.3859 88.3125 23.4062C88.3125 26.4266 90.7609 28.875 93.7812 28.875Z" fill="#ECECEC"/>
<path d="M123.312 28.875C126.333 28.875 128.781 26.4266 128.781 23.4062C128.781 20.3859 126.333 17.9375 123.312 17.9375C120.292 17.9375 117.844 20.3859 117.844 23.4062C117.844 26.4266 120.292 28.875 123.312 28.875Z" fill="#ECECEC"/>
<path d="M100.344 32.1562C103.364 32.1562 105.812 29.7078 105.812 26.6875C105.812 23.6672 103.364 21.2188 100.344 21.2188C97.3234 21.2188 94.875 23.6672 94.875 26.6875C94.875 29.7078 97.3234 32.1562 100.344 32.1562Z" fill="#ECECEC"/>
<path d="M106.906 28.875C109.927 28.875 112.375 26.4266 112.375 23.4062C112.375 20.3859 109.927 17.9375 106.906 17.9375C103.886 17.9375 101.438 20.3859 101.438 23.4062C101.438 26.4266 103.886 28.875 106.906 28.875Z" fill="#ECECEC"/>
<path d="M100.344 22.3125C103.364 22.3125 105.812 19.8641 105.812 16.8438C105.812 13.8234 103.364 11.375 100.344 11.375C97.3234 11.375 94.875 13.8234 94.875 16.8438C94.875 19.8641 97.3234 22.3125 100.344 22.3125Z" fill="#ECECEC"/>
<path d="M108 22.3125C111.02 22.3125 113.469 19.8641 113.469 16.8438C113.469 13.8234 111.02 11.375 108 11.375C104.98 11.375 102.531 13.8234 102.531 16.8438C102.531 19.8641 104.98 22.3125 108 22.3125Z" fill="#ECECEC"/>
<path d="M116.75 28.875C119.77 28.875 122.219 26.4266 122.219 23.4062C122.219 20.3859 119.77 17.9375 116.75 17.9375C113.73 17.9375 111.281 20.3859 111.281 23.4062C111.281 26.4266 113.73 28.875 116.75 28.875Z" fill="#ECECEC"/>
<path d="M116.75 22.3125C119.77 22.3125 122.219 19.8641 122.219 16.8438C122.219 13.8234 119.77 11.375 116.75 11.375C113.73 11.375 111.281 13.8234 111.281 16.8438C111.281 19.8641 113.73 22.3125 116.75 22.3125Z" fill="#ECECEC"/>
<path fill-rule="evenodd" clip-rule="evenodd" d="M108.454 66.4602C109.308 67.3144 113.4 66.795 114.895 65.3001C116.39 63.8051 115.816 61.9006 114.962 61.0464C114.107 60.1921 111.109 60.7115 109.614 62.2065C108.119 63.7014 107.6 65.6059 108.454 66.4602Z" fill="#595959"/>
<path fill-rule="evenodd" clip-rule="evenodd" d="M107.305 66.4605C106.45 67.3147 102.358 66.7953 100.863 65.3004C99.3684 63.8054 99.9428 61.9009 100.797 61.0467C101.651 60.1924 104.65 60.7118 106.144 62.2068C107.639 63.7017 108.159 65.6062 107.305 66.4605Z" fill="#595959"/>
<path d="M98.1562 46.375C100.572 46.375 102.531 44.4162 102.531 42C102.531 39.5838 100.572 37.625 98.1562 37.625C95.74 37.625 93.7812 39.5838 93.7812 42C93.7812 44.4162 95.74 46.375 98.1562 46.375Z" fill="white"/>
<path d="M98.1562 44.1875C99.3644 44.1875 100.344 43.2081 100.344 42C100.344 40.7919 99.3644 39.8125 98.1562 39.8125C96.9481 39.8125 95.9688 40.7919 95.9688 42C95.9688 43.2081 96.9481 44.1875 98.1562 44.1875Z" fill="#595959"/>
<path d="M116.75 46.375C119.166 46.375 121.125 44.4162 121.125 42C121.125 39.5838 119.166 37.625 116.75 37.625C114.334 37.625 112.375 39.5838 112.375 42C112.375 44.4162 114.334 46.375 116.75 46.375Z" fill="white"/>
<path d="M116.75 44.1875C117.958 44.1875 118.938 43.2081 118.938 42C118.938 40.7919 117.958 39.8125 116.75 39.8125C115.542 39.8125 114.562 40.7919 114.562 42C114.562 43.2081 115.542 44.1875 116.75 44.1875Z" fill="#595959"/>
<defs>
<clipPath id="clip0_100_163">
<rect width="70" height="70" fill="white" transform="translate(0 6)"/>
</clipPath>
</defs>
</svg>
