<svg width="89" height="75" viewBox="0 0 89 75" fill="none" xmlns="http://www.w3.org/2000/svg">
<path d="M48.2019 74.9509C48.2019 74.9509 78.6554 43.6281 82.8354 37.1958C87.0153 30.7634 6.10431 25.7294 13.0371 37.1958C19.97 48.6622 48.2019 74.9509 48.2019 74.9509Z" fill="#D99CB0"/>
<ellipse cx="30.5866" cy="22.0937" rx="23.5866" ry="22.0937" fill="#D99CB0"/>
<ellipse cx="65.2201" cy="22.0937" rx="23.5866" ry="22.0937" fill="#D99CB0"/>
<path fill-rule="evenodd" clip-rule="evenodd" d="M21.8007 24.4025L21.8138 27.01C21.8182 27.5831 21.5907 28.1344 21.186 28.5412C20.7813 28.9481 20.2323 29.1778 19.6569 29.1778H19.6526C17.9113 29.1778 16.2423 29.8691 15.0107 31.0984C13.7769 32.33 13.0857 33.9991 13.0857 35.7403C13.0857 42.4691 13.0857 55.2878 13.0857 62.0187C13.0857 63.76 13.7769 65.4291 15.0107 66.6606C16.2423 67.89 17.9113 68.5812 19.6526 68.5812C27.2301 68.5812 42.6913 68.5812 50.2666 68.5812C52.0079 68.5812 53.6791 67.89 54.9107 66.6606C56.1423 65.4291 56.8357 63.76 56.8357 62.0187C56.8357 55.2878 56.8357 42.4691 56.8357 35.7403C56.8357 33.9991 56.1423 32.33 54.9107 31.0984C53.6791 29.8691 52.0079 29.1778 50.2666 29.1778C49.0635 29.1778 48.0835 28.2022 48.0813 26.9991L48.0769 24.3894C48.9782 24.0656 49.8094 23.545 50.5007 22.8537C51.7301 21.6222 52.4213 19.9531 52.4213 18.2141V13.8959C52.4213 12.1547 51.7301 10.4856 50.5007 9.25406C49.2691 8.02469 47.6001 7.33344 45.8588 7.33344H23.9838C22.2448 7.33344 20.5757 8.02469 19.3441 9.25406C18.1126 10.4856 17.4213 12.1547 17.4213 13.8959C17.4213 15.285 17.4213 16.8228 17.4213 18.2141C17.4213 19.9531 18.1126 21.6222 19.3441 22.8537C20.0441 23.5537 20.8841 24.0787 21.8007 24.4025ZM50.2644 33.5528C50.8463 33.5528 51.4063 33.7825 51.8176 34.1937C52.2288 34.605 52.4607 35.1606 52.4607 35.7403V62.0187C52.4607 62.5984 52.2288 63.1541 51.8176 63.5631C51.4063 63.9744 50.8485 64.2062 50.2666 64.2062H19.6526C19.0707 64.2062 18.5129 63.9744 18.1016 63.5631C17.6904 63.1541 17.4607 62.5984 17.4607 62.0187V35.7403C17.4607 35.1606 17.6904 34.605 18.1016 34.1937C18.5129 33.7825 19.0707 33.5528 19.6526 33.5528H19.6569C21.396 33.5528 23.0629 32.8594 24.2879 31.6278C25.5129 30.3941 26.1976 28.725 26.1888 26.9859L26.1779 24.8312H43.7019L43.7063 27.0078C43.7129 30.6237 46.6485 33.5528 50.2644 33.5528ZM48.0463 13.8959V18.2141C48.0463 18.7937 47.8166 19.3494 47.4054 19.7606C46.9963 20.1697 46.4407 20.4016 45.8588 20.4016H23.9838C23.4041 20.4016 22.8485 20.1697 22.4373 19.7606C22.0282 19.3494 21.7963 18.7937 21.7963 18.2141V13.8959C21.7963 13.3141 22.0282 12.7584 22.4373 12.3494C22.8485 11.9381 23.4041 11.7084 23.9838 11.7084H45.8588C46.4407 11.7084 46.9963 11.9381 47.4054 12.3494C47.8166 12.7584 48.0463 13.3141 48.0463 13.8959Z" fill="black"/>
<path fill-rule="evenodd" clip-rule="evenodd" d="M32.7731 42.3312H28.3718C27.1643 42.3312 26.1843 43.3112 26.1843 44.5187C26.1843 45.7262 27.1643 46.7062 28.3718 46.7062H32.7731V51.1053C32.7731 52.3128 33.7531 53.2928 34.9606 53.2928C36.1681 53.2928 37.1481 52.3128 37.1481 51.1053V46.7062H41.5471C42.7546 46.7062 43.7346 45.7262 43.7346 44.5187C43.7346 43.3112 42.7546 42.3312 41.5471 42.3312H37.1481V37.93C37.1481 36.7225 36.1681 35.7425 34.9606 35.7425C33.7531 35.7425 32.7731 36.7225 32.7731 37.93V42.3312Z" fill="black"/>
</svg>
