<svg width="82" height="75" viewBox="0 0 82 75" fill="none" xmlns="http://www.w3.org/2000/svg">
<path d="M41.2019 74.9509C41.2019 74.9509 71.6554 43.6281 75.8354 37.1958C80.0153 30.7634 -0.895685 25.7294 6.03714 37.1958C12.97 48.6622 41.2019 74.9509 41.2019 74.9509Z" fill="#D99CB0"/>
<ellipse cx="23.5866" cy="22.0937" rx="23.5866" ry="22.0937" fill="#D99CB0"/>
<ellipse cx="58.2201" cy="22.0937" rx="23.5866" ry="22.0937" fill="#D99CB0"/>
<g clip-path="url(#clip0_65_71)">
<path d="M70 37.7047L66.1111 42.4295L35 16.8428L3.88889 42.4295L0 37.7047L35 8.91965L70 37.7047ZM35.0091 22.7397L57.5792 41.4573V58.9574V64.3182V67.0803H12.4117V64.2455V58.9574V41.3847L35.0091 22.7397ZM36.8537 42.4931C36.6968 42.6081 35.0001 44.1286 35.0001 44.1286C35.0001 44.1286 33.3011 42.6021 33.1465 42.4931C30.8493 40.8736 28.3763 40.7667 26.4863 41.7571C24.6237 42.6565 23.5061 44.6373 23.3698 46.9181C23.3607 46.9997 23.3607 47.0816 23.3607 47.1634C23.3334 48.8989 24.0149 50.5071 24.9962 51.9337C25.4323 52.5697 25.8957 53.1694 26.3773 53.7509C27.086 54.6503 34.9955 62.089 34.9955 62.089C34.9955 62.089 42.9141 54.6414 43.6229 53.7509C44.1045 53.1694 44.5677 52.5604 45.0038 51.9337C45.9853 50.4979 46.6668 48.8989 46.6393 47.1634C46.6393 47.0816 46.6393 46.9997 46.6302 46.9181C46.4939 44.6373 45.3763 42.6476 43.5137 41.7571C41.6239 40.7667 39.12 40.8307 36.8537 42.4931Z" fill="black"/>
</g>
<defs>
<clipPath id="clip0_65_71">
<rect width="70" height="70" fill="white" transform="translate(0 3)"/>
</clipPath>
</defs>
</svg>
