<svg width="83" height="75" viewBox="0 0 83 75" fill="none" xmlns="http://www.w3.org/2000/svg">
<path d="M42.2019 74.9509C42.2019 74.9509 72.6554 43.6282 76.8354 37.1958C81.0153 30.7635 0.104315 25.7294 7.03714 37.1958C13.97 48.6622 42.2019 74.9509 42.2019 74.9509Z" fill="#D99CB0"/>
<ellipse cx="24.5866" cy="22.0937" rx="23.5866" ry="22.0937" fill="#D99CB0"/>
<ellipse cx="59.2201" cy="22.0937" rx="23.5866" ry="22.0937" fill="#D99CB0"/>
<path d="M39.4883 10.2706C39.4883 8.46297 38.0255 7 36.2177 7H23.7821C21.9756 7 20.5105 8.46297 20.5105 10.2706V18.5392H39.4883V10.2706Z" fill="black"/>
<path d="M30.0006 33.6184C35.5201 33.6184 40.0705 29.5044 40.7734 24.1817H37.4544L40.6579 19.9115L39.7354 19.219L36.0123 24.1817H23.9901L20.2682 19.219L19.3445 19.9115L22.5475 24.1817H19.228C19.9296 29.5044 24.4808 33.6184 30.0006 33.6184Z" fill="black"/>
<path d="M17.6149 48.6749V31.2788C17.6149 30.6884 17.1349 30.2094 16.5454 30.2094C15.955 30.2094 15.4771 30.6884 15.4771 31.2788V36.559C15.2615 36.5059 15.0304 36.4559 14.7878 36.406V29.7669C14.7878 29.1766 14.3078 28.6987 13.7195 28.6987C13.129 28.6987 12.6501 29.1766 12.6501 29.7669V35.9614C12.4199 35.9113 12.1899 35.8634 11.9618 35.8186V29.3816C11.9618 28.7934 11.4829 28.3134 10.8945 28.3134C10.3021 28.3134 9.82516 28.7934 9.82516 29.3816V35.5584C9.58258 35.5584 9.35665 35.5791 9.13692 35.6145V31.3006C9.13692 30.7112 8.65692 30.2332 8.06758 30.2332C7.47719 30.2332 6.99919 30.7112 6.99919 31.3006C6.99919 31.3006 6.99192 38.7268 6.99508 38.8913C6.87227 39.9242 5.01157 37.8344 3.37985 37.3908C1.65251 36.9193 1.21505 38.5613 2.90922 39.9034C5.77165 42.1744 7.0252 44.8868 7.0252 46.7716V48.6749H17.6149Z" fill="black"/>
<path d="M56.6211 37.3909C54.9916 37.8345 53.1276 39.9243 53.0058 38.8914C53.0089 38.7269 53.0027 31.3007 53.0027 31.3007C53.0027 30.7114 52.5237 30.2334 51.9333 30.2334C51.344 30.2334 50.866 30.7114 50.866 31.3007V35.6146C50.6464 35.5792 50.4161 35.5585 50.1758 35.5585V29.3816C50.1758 28.7934 49.6988 28.3134 49.1084 28.3134C48.518 28.3134 48.04 28.7934 48.04 29.3816V35.8186C47.811 35.8634 47.5829 35.9113 47.3507 35.9614V29.7669C47.3507 29.1766 46.8708 28.6987 46.2824 28.6987C45.691 28.6987 45.2131 29.1766 45.2131 29.7669V36.406C44.9704 36.456 44.7383 36.5059 44.5238 36.559V31.2788C44.5238 30.6884 44.0458 30.2094 43.4555 30.2094C42.8651 30.2094 42.3882 30.6884 42.3882 31.2788V48.6749H52.9756V46.7716C52.9756 44.8868 54.2314 42.1745 57.0917 39.9034C58.7838 38.5614 58.3485 36.9194 56.6211 37.3909Z" fill="black"/>
<path d="M42.3902 52.2726H40.8553V40.0117C40.8553 39.4443 40.088 38.7685 39.5206 38.7685H36.5426L30.0005 45.3097L23.4583 38.7685H20.4803C19.9325 38.7685 19.1454 39.4443 19.1454 40.0117V52.2726H17.6107V49.9516H7.03149L7.08669 54.8299V60.7504C7.08669 62.3029 8.42146 64.2418 9.79185 64.9529C11.162 65.6849 14.1578 66.5075 17.5752 63.6201V67H42.4256V63.6201C45.8431 66.5076 48.8387 65.6849 50.2101 64.9529C51.5803 64.2418 52.9152 62.3029 52.9152 60.7504V54.8299L52.9705 49.9516H42.3902V52.2726Z" fill="black"/>
</svg>
