<svg width="82" height="78" viewBox="0 0 82 78" fill="none" xmlns="http://www.w3.org/2000/svg">
<path d="M41.2019 74.9509C41.2019 74.9509 71.6554 43.6282 75.8354 37.1958C80.0153 30.7635 -0.895685 25.7294 6.03714 37.1958C12.97 48.6622 41.2019 74.9509 41.2019 74.9509Z" fill="#D99CB0"/>
<ellipse cx="23.5866" cy="22.0937" rx="23.5866" ry="22.0937" fill="#D99CB0"/>
<ellipse cx="58.2201" cy="22.0937" rx="23.5866" ry="22.0937" fill="#D99CB0"/>
<path d="M76.1103 21.0182C74.7522 19.7545 63.2815 9.08027 61.9356 7.82781C60.7497 6.72414 58.8266 6.72414 57.6406 7.82781C56.4546 8.93148 56.4546 10.7209 57.6406 11.8245L59.363 13.4273L51.0804 21.1347C47.5747 17.8723 46.8601 17.2074 43.8984 14.4514C42.7125 13.3477 40.7895 13.3477 39.6034 14.4514C38.4174 15.5551 38.4174 17.3444 39.6034 18.4481L42.9155 21.5301L14.9952 47.5115C13.8091 48.6152 13.8091 50.4046 14.9952 51.5082L19.9352 56.1052L5.88953 69.1755C4.70349 70.2791 4.70349 72.0685 5.88953 73.1722C7.07542 74.2758 8.99847 74.2761 10.1845 73.1722L24.2302 60.1019L29.1702 64.6989C30.3561 65.8024 32.2791 65.8026 33.4652 64.6989L61.3857 38.7172L64.6977 41.7992C65.8836 42.9029 67.8067 42.9032 68.9927 41.7992C70.1788 40.6956 70.1788 38.9062 68.9927 37.8025C66.032 35.0474 65.3151 34.3803 61.8107 31.1193L70.0933 23.412L71.8156 25.0148C73.0015 26.1185 74.9246 26.1187 76.1106 25.0148C77.2964 23.9112 77.2964 22.1219 76.1103 21.0182ZM31.3175 58.7038L21.4378 49.51L25.4478 45.7784L28.0248 48.1764C29.2107 49.28 31.1337 49.2801 32.3198 48.1764C33.5058 47.0728 33.5058 45.2834 32.3198 44.1797L29.7428 41.7817L32.1766 39.5168L34.7536 41.9148C35.9395 43.0185 37.8625 43.0187 39.0485 41.9148C40.2346 40.8111 40.2346 39.0217 39.0485 37.9181L36.4716 35.5201L38.9054 33.2553L41.4823 35.6533C42.6682 36.757 44.5913 36.7572 45.7773 35.6533C46.9634 34.5496 46.9634 32.7602 45.7773 31.6566L43.2004 29.2586L47.2107 25.5267C48.2034 26.4504 56.0985 33.7973 57.0906 34.7205L31.3175 58.7038ZM57.5156 27.1227L55.3756 25.1313L63.658 17.424L65.798 19.4154L57.5156 27.1227Z" fill="black"/>
</svg>
