<svg xmlns="http://www.w3.org/2000/svg" version="1.1" xmlns:xlink="http://www.w3.org/1999/xlink" xmlns:svgjs="http://svgjs.dev/svgjs" viewBox="0 0 600 600"><path d="M511.349365234375,155.17782592773438C504.2886962890625,127.01359939575195,520.1098225911459,96.20815785725911,477.61505126953125,83.4728012084961C435.1202799479167,70.73744455973308,305.67466990152997,66.08263270060222,256.3807373046875,78.76568603515625C207.08680470784506,91.44873936971028,207.47907002766928,133.81275431315103,181.85145568847656,159.5711212158203C156.22384134928384,185.3294881184896,125.36609713236491,214.2259292602539,102.61505126953125,233.31588745117188C79.86400540669759,252.40584564208984,51.490577697753906,246.91421508789062,45.34518051147461,274.1108703613281C39.19978332519531,301.3075256347656,39.59204037984212,367.07636006673175,65.74266815185547,396.4958190917969C91.89329592386882,425.915278116862,154.26254653930664,430.7008412679036,202.2489471435547,450.62762451171875C250.23534774780273,470.5544077555339,309.85877227783203,523.0648854573568,353.66107177734375,516.0565185546875C397.46337127685547,509.04815165201825,437.34307861328125,452.51048278808594,465.062744140625,408.5774230957031C492.78240966796875,364.6443634033203,512.2646280924479,294.69142659505206,519.9790649414062,252.45816040039062C527.6935017903646,210.22489420572916,518.4100341796875,183.3420524597168,511.349365234375,155.17782592773438C504.2886962890625,127.01359939575195,520.1098225911459,96.20815785725911,477.61505126953125,83.4728012084961" fill="url(&quot;#SvgjsLinearGradient1000&quot;)" transform="matrix(0.9974999999999999,0,0,0.9974999999999999,18.219899110794074,6.751636161804186)" stroke-width="0" stroke="hsl(340, 45%, 30%)"></path><defs><linearGradient id="SvgjsLinearGradient1000"><stop stop-color="hsl(340, 45%, 50%)" offset="0"></stop><stop stop-color="hsl(340, 45%, 80%)" offset="1"></stop></linearGradient></defs></svg>